<?xml version="1.0" standalone="no"?>
<!DOCTYPE svg PUBLIC "-//W3C//DTD SVG 20010904//EN"
 "http://www.w3.org/TR/2001/REC-SVG-20010904/DTD/svg10.dtd">
<svg version="1.0" xmlns="http://www.w3.org/2000/svg"
 width="700.000000pt" height="700.000000pt" viewBox="0 0 700.000000 700.000000"
 preserveAspectRatio="xMidYMid meet">
<metadata>
Created by potrace 1.11, written by Peter Selinger 2001-2013
</metadata>
<g transform="translate(0.000000,700.000000) scale(0.100000,-0.100000)"
fill="#000000" stroke="none">
<path d="M5497 4936 c-86 -36 -132 -69 -228 -165 -110 -110 -208 -243 -389
-528 -333 -525 -395 -611 -487 -674 l-44 -30 -33 29 c-43 38 -97 56 -148 49
-51 -7 -68 -22 -68 -62 0 -55 28 -70 134 -70 l91 -1 0 -70 c0 -69 -1 -72 -116
-299 -128 -255 -154 -333 -153 -457 1 -102 35 -174 106 -225 35 -26 47 -40 43
-52 -59 -143 -93 -360 -54 -336 5 4 9 21 9 38 0 45 26 150 56 228 l25 67 83
-5 c137 -9 248 34 388 151 147 122 249 282 256 403 5 77 -10 118 -52 140 -42
22 -130 20 -186 -5 -149 -65 -334 -276 -457 -522 -25 -50 -50 -89 -56 -87 -28
9 -52 82 -52 157 1 99 28 186 121 381 124 260 144 350 107 461 l-20 58 56 31
c73 41 225 196 326 331 44 59 184 269 310 468 247 388 304 465 384 524 153
113 318 72 362 -88 14 -53 34 -33 24 26 -6 33 -18 53 -54 88 -76 74 -176 90
-284 46z m-1236 -1373 c45 -27 43 -40 -6 -48 -58 -8 -125 10 -125 34 0 10 3
21 7 24 13 14 96 7 124 -10z m638 -520 c49 -40 44 -151 -10 -263 -42 -86 -205
-251 -299 -303 -107 -58 -228 -82 -308 -61 -28 8 -28 8 46 142 116 210 296
417 412 475 63 32 127 35 159 10z"/>
<path d="M2960 4841 c-159 -34 -279 -95 -387 -195 -121 -112 -201 -266 -218
-423 l-7 -61 -92 -7 c-184 -14 -326 -53 -480 -133 -221 -114 -419 -307 -519
-507 -122 -245 -124 -583 -5 -819 82 -163 210 -281 401 -371 180 -85 369 -115
609 -96 230 18 410 65 606 157 397 187 729 525 1109 1131 90 144 162 271 411
730 157 290 182 327 251 371 73 45 111 81 111 104 0 40 -58 12 -144 -70 -39
-37 -93 -85 -119 -106 -27 -21 -103 -100 -170 -175 -312 -349 -471 -486 -704
-606 -144 -75 -423 -153 -423 -119 0 28 -42 124 -80 182 -73 114 -229 217
-415 275 -73 23 -139 35 -269 52 l-49 7 6 73 c23 268 232 461 582 537 37 8
125 13 230 12 142 -1 183 -4 249 -22 235 -65 375 -193 393 -362 6 -62 18 -84
29 -55 12 29 -14 147 -46 211 -57 116 -207 224 -380 275 -108 31 -359 37 -480
10z m1440 -446 c-113 -150 -174 -243 -396 -602 -223 -360 -321 -510 -439 -668
-409 -546 -824 -814 -1321 -854 -235 -19 -413 12 -600 104 -177 88 -307 211
-379 360 -51 106 -66 175 -72 325 -6 153 12 255 65 373 66 145 208 311 347
404 189 127 459 213 670 213 l82 0 6 -35 c12 -72 68 -168 141 -240 131 -129
316 -202 545 -212 l123 -6 -6 -61 c-26 -240 -158 -406 -431 -541 -288 -143
-609 -164 -818 -52 -111 59 -167 150 -167 276 -1 62 -2 65 -16 46 -21 -27 -13
-136 16 -204 43 -100 179 -195 340 -238 98 -26 308 -24 423 5 162 40 301 111
431 220 140 116 235 300 252 484 l6 73 92 22 c176 42 368 140 570 293 135 101
243 205 389 374 122 140 217 246 223 246 1 0 -33 -47 -76 -105z m-1768 -370
c279 -58 468 -192 518 -366 l9 -31 -97 7 c-263 19 -448 88 -566 211 -43 44
-88 124 -102 178 l-7 29 86 -6 c47 -4 119 -14 159 -22z"/>
</g>
</svg>
