<svg width="124" height="49" viewBox="0 0 124 49" fill="none" xmlns="http://www.w3.org/2000/svg">
<path d="M97.8052 3.10791C97.8052 3.51153 97.7383 3.71334 97.6046 3.71334C97.2302 1.53377 95.7459 0.443984 93.1516 0.443984C90.9318 0.443984 88.6719 1.76249 86.3718 4.3995C83.3764 8.16667 80.3944 11.9204 77.4258 15.6606C73.3071 20.5579 69.8303 23.4506 66.9954 24.3385C67.6105 25.1189 67.918 25.9934 67.918 26.9621C67.918 28.3075 67.0355 30.3391 65.2703 33.0568C63.5319 35.7746 62.6627 37.9138 62.6627 39.4745C62.6627 40.8468 63.1709 41.802 64.1872 42.3402C65.5511 39.757 67.3163 37.4294 69.4826 35.3575C72.1571 32.8012 74.6443 31.5231 76.9444 31.5231C78.7897 31.5231 79.7124 32.2227 79.7124 33.6219C79.7124 35.7208 78.188 37.9272 75.1391 40.2414C72.3042 42.394 69.4826 43.4703 66.6744 43.4703C65.9256 43.4703 65.1901 43.3627 64.468 43.1475C63.318 45.2463 62.7028 47.0357 62.6226 48.5156C62.6493 48.6502 62.5959 48.8116 62.4621 49C62.3284 48.8655 62.2615 48.704 62.2615 48.5156C62.2615 47.0357 62.8098 45.179 63.9063 42.9456C61.6865 42.0846 60.5766 40.6046 60.5766 38.5058C60.5766 37.0796 61.0982 35.4517 62.1412 33.6219C62.3284 33.299 63.2645 31.846 64.9494 29.2628C65.9657 27.729 66.4738 26.5988 66.4738 25.8723C66.4738 25.4418 66.3535 24.9978 66.1128 24.5404C65.4977 24.6749 64.7488 24.7422 63.8662 24.7422C62.2615 24.7422 61.4592 24.3655 61.4592 23.612C61.4592 22.9124 62.061 22.5626 63.2645 22.5626C64.5482 22.5626 65.6849 23.0066 66.6744 23.8946C68.1989 23.3026 69.7768 22.0513 71.4082 20.1409C72.7989 18.4995 75.2327 15.4588 78.7095 11.0189C81.17 7.87067 83.2828 5.5162 85.048 3.95552C87.9899 1.31851 90.7179 0 93.2318 0C94.2749 0 95.2511 0.255628 96.1604 0.766884C97.2569 1.35887 97.8052 2.13921 97.8052 3.10791ZM75.0589 3.95552C75.0589 4.33223 74.6042 4.74931 73.6949 5.20675C73.0798 5.47584 72.478 5.77183 71.8896 6.09473C71.328 6.39072 70.0977 7.93795 68.1989 10.7364C66.7279 12.9429 65.2436 15.1628 63.7459 17.3962C62.0075 19.9794 60.4563 22.1455 59.0923 23.8946C53.4759 31.1867 47.8863 36.528 42.3234 39.9184C35.8245 43.9009 28.4429 45.8921 20.1788 45.8921C14.9636 45.8921 10.4839 44.7889 6.73965 42.5824C2.24655 39.9184 0 36.1244 0 31.2002C0 26.4643 2.38027 22.3742 7.14082 18.93C12.1421 15.3243 17.8654 13.5214 24.3109 13.5214H24.8725C24.926 10.3731 26.4103 7.66886 29.3255 5.40856C32.5349 2.9061 36.9477 1.65486 42.5641 1.65486C45.7735 1.65486 48.7154 2.2603 51.3898 3.47117C54.8132 5.00494 56.5248 7.18451 56.5248 10.0099C56.5248 10.4135 56.4446 10.575 56.2841 10.4942L56.1638 10.3328C56.1638 7.58814 54.4789 5.55656 51.109 4.23805C48.6218 3.24245 45.7601 2.74464 42.524 2.74464C38.1914 2.74464 34.4872 3.45771 31.4116 4.88385C27.3197 6.76743 25.2737 9.64662 25.2737 13.5214C29.0179 13.629 32.4011 14.2883 35.4233 15.4992C39.3815 17.0868 41.7083 19.3605 42.4036 22.3204C49.8387 21.6477 56.926 18.2304 63.6656 12.0684C65.8052 10.1041 66.9552 9.06809 67.1157 8.96046C68.8274 7.45359 70.0442 6.57907 70.7663 6.3369C72.6652 4.61477 74.0024 3.7537 74.778 3.7537C74.9652 3.7537 75.0589 3.82098 75.0589 3.95552ZM65.832 24.1367V24.0964C65.2436 23.3968 64.4145 23.047 63.3447 23.047C62.4086 23.047 61.9406 23.2353 61.9406 23.612C61.9406 24.0964 62.6092 24.3385 63.9465 24.3385C64.722 24.3385 65.3506 24.2713 65.832 24.1367ZM79.0706 33.7026C79.0706 32.438 78.3886 31.8056 77.0246 31.8056C74.992 31.8056 72.6251 33.1376 69.9239 35.8015C67.7843 37.9541 66.0593 40.201 64.7488 42.542V42.5824C65.2302 42.7976 65.9523 42.9053 66.9151 42.9053C69.4826 42.9053 72.1036 41.9231 74.778 39.9588C77.6397 37.86 79.0706 35.7746 79.0706 33.7026ZM41.842 22.3608C41.1466 19.7776 38.8466 17.8537 34.9419 16.589C32.2139 15.7279 29.0714 15.2435 25.5144 15.1359L25.4743 15.1763C26.1964 17.9209 28.4697 19.8987 32.2942 21.1096C34.9686 21.9437 38.1512 22.3608 41.842 22.3608ZM70.1646 7.06343V7.02306C69.8169 7.15761 69.2686 7.54777 68.5198 8.19357C66.9686 9.61971 65.4308 11.0459 63.9063 12.472C62.061 14.1672 60.4429 15.4857 59.0522 16.4275C53.0881 20.4907 47.5787 22.7913 42.524 23.3295C42.524 27.6079 40.3042 31.0253 35.8646 33.5815C32.1203 35.7611 27.9482 36.8509 23.3481 36.8509C20.6736 36.8509 18.2399 36.3935 16.0468 35.4786C13.1584 34.2946 11.7142 32.5456 11.7142 30.2315C11.7142 29.3704 11.8479 28.9533 12.1153 28.9802C12.1421 29.0071 12.1554 29.034 12.1554 29.061C12.1554 29.1417 12.1421 29.2762 12.1153 29.4646C12.0886 29.6529 12.0752 29.7875 12.0752 29.8682C12.0752 32.1016 13.3456 33.7161 15.8863 34.7117C17.6782 35.4382 19.8846 35.8015 22.5056 35.8015C26.7313 35.8015 30.8098 34.8597 34.7413 32.9761C39.5821 30.662 42.0025 27.6214 42.0025 23.8542C42.0025 23.6927 41.9891 23.5448 41.9624 23.4102C41.8019 23.4102 41.5478 23.4237 41.2001 23.4506C40.8525 23.4506 40.585 23.4506 40.3978 23.4506C37.0012 23.4506 33.9122 22.8586 31.1308 21.6746C27.6272 20.1678 25.5679 17.9882 24.9528 15.1359H24.0702C20.1922 15.1359 16.4613 15.7952 12.8776 17.1137C8.83911 18.5667 5.69661 20.6252 3.45006 23.2891C1.36398 25.7647 0.320936 28.4152 0.320936 31.2405C0.320936 35.8957 2.55411 39.5148 7.02047 42.098C10.738 44.2507 15.0974 45.327 20.0986 45.327C27.5871 45.327 34.4471 43.282 40.6786 39.1919C45.7334 35.8822 50.9218 30.7831 56.244 23.8946C58.4638 21.0154 60.6836 18.1227 62.9034 15.2166C65.5244 11.9338 67.9448 9.21609 70.1646 7.06343Z" fill="#242628"/>
<path d="M90.0244 38.0618C90.0244 38.1425 89.904 38.304 89.6633 38.5461C88.6738 39.5686 87.5772 40.4297 86.3737 41.1293C84.9563 41.9635 83.6458 42.3806 82.4423 42.3806C80.9713 42.3806 80.2358 41.8828 80.2358 40.8871C80.2358 40.1606 80.5568 39.3668 81.1986 38.5058H81.1585C80.7841 38.9094 80.53 39.1112 80.3963 39.1112C80.3696 39.1112 80.3428 39.0977 80.3161 39.0708V38.9901C80.3161 38.9901 80.3294 38.9363 80.3562 38.8287C81.105 37.9945 82.2016 37.1738 83.6458 36.3666C85.197 35.5324 86.4673 35.1153 87.4569 35.1153C88.2325 35.1153 88.6203 35.4651 88.6203 36.1647C88.6203 37.3756 86.6011 38.6269 82.5626 39.9184C82.4022 40.4566 82.3219 40.8199 82.3219 41.0082C82.3219 41.4926 82.6295 41.7348 83.2446 41.7348C84.0737 41.7348 85.0499 41.4119 86.1731 40.7661C86.9487 40.3086 87.7912 39.7032 88.7005 38.9497C89.4761 38.277 89.8773 37.9407 89.904 37.9407C89.9843 37.9407 90.0244 37.9811 90.0244 38.0618ZM87.2162 36.0033C87.2162 35.7611 87.0557 35.64 86.7348 35.64C86.1999 35.64 85.4644 36.1513 84.5283 37.1738C83.8062 37.9541 83.2312 38.721 82.8033 39.4745V39.5148C85.7452 38.573 87.2162 37.4025 87.2162 36.0033Z" fill="#242628"/>
<path d="M102.038 37.9061C101.048 39.3591 99.8717 40.0857 98.5077 40.0857C97.7856 40.0857 97.3711 39.83 97.2641 39.3188C93.921 41.2831 91.621 42.2652 90.364 42.2652C89.9628 42.2652 89.7622 42.0769 89.7622 41.7002C89.7622 41.5387 90.4041 40.6911 91.6878 39.1573C92.9983 37.5966 93.6669 36.5876 93.6937 36.1302L93.5733 35.9283L93.3326 35.8476C92.4768 36.1974 91.2198 37.1527 89.5616 38.7133C89.3744 38.9017 89.2407 38.9959 89.1605 38.9959C89.0535 38.9959 89 38.9421 89 38.8344C89 38.5653 89.7355 37.8657 91.2064 36.7356C92.7041 35.5785 93.7739 35 94.4158 35C95.1646 35 95.5391 35.3767 95.5391 36.1302C95.5391 37.5025 94.3088 39.2784 91.8483 41.458V41.4983C92.5169 41.31 93.453 40.9198 94.6565 40.3278C95.8867 39.709 96.7426 39.1977 97.224 38.7941C97.331 38.0945 97.6385 37.3141 98.1467 36.453C98.7618 35.4843 99.3635 35 99.9519 35C100.273 35 100.433 35.1884 100.433 35.5651C100.433 36.1301 100.086 36.7894 99.3903 37.5428C98.8554 38.1617 98.267 38.673 97.6251 39.0766C97.6786 39.5071 97.9996 39.7224 98.588 39.7224C99.2031 39.7224 99.9118 39.413 100.714 38.7941C101.516 38.1752 101.944 37.8657 101.998 37.8657C102.025 37.8657 102.038 37.8792 102.038 37.9061Z" fill="#242628"/>
<path d="M111.641 38.0618C111.641 38.4385 110.718 39.2996 108.873 40.645C107.429 41.7213 106.238 42.2595 105.302 42.2595C104.473 42.2595 104.059 41.9366 104.059 41.2908C104.059 40.4835 104.821 39.4072 106.345 38.0618C107.87 36.6895 108.632 35.9898 108.632 35.9629C108.632 35.8015 108.485 35.7073 108.191 35.6804C107.977 35.6535 107.683 35.6535 107.308 35.6804C106.854 35.7342 106.626 35.7611 106.626 35.7611C106.492 35.7611 106.305 35.7208 106.065 35.64C105.877 35.8822 105.235 36.5145 104.139 37.5371C103.042 38.5596 102.441 39.0708 102.334 39.0708C102.253 39.0708 102.213 39.0305 102.213 38.9497C102.213 38.8959 102.32 38.7748 102.534 38.5865C102.989 38.2098 104.059 37.1738 105.744 35.4786C105.556 35.371 105.463 35.1826 105.463 34.9135C105.463 34.5099 105.65 34.1735 106.024 33.9044C106.426 33.6354 106.84 33.5008 107.268 33.5008C107.643 33.5008 107.883 33.6354 107.99 33.9044C107.776 34.0659 107.576 34.2273 107.388 34.3888C107.121 34.6041 106.987 34.8193 106.987 35.0346C106.987 35.223 107.442 35.344 108.351 35.3979C109.261 35.4517 109.715 35.7208 109.715 36.2051C109.715 36.4742 109.154 37.2276 108.03 38.4654C106.907 39.6763 106.345 40.5373 106.345 41.0486C106.345 41.1293 106.386 41.2101 106.466 41.2908H106.666C107.174 41.3177 108.111 40.7661 109.475 39.6359C110.865 38.5058 111.547 37.9407 111.52 37.9407C111.601 37.9407 111.641 37.9811 111.641 38.0618Z" fill="#242628"/>
<path d="M124 38.0214C124 38.2905 123.077 39.165 121.232 40.645C119.895 41.7213 118.745 42.2595 117.782 42.2595C117.006 42.2595 116.618 41.9366 116.618 41.2908C116.618 40.8064 116.806 40.3624 117.18 39.9588H117.14C115.455 41.4926 113.944 42.2595 112.607 42.2595C111.59 42.2595 111.082 41.8155 111.082 40.9275C111.082 40.1472 111.457 39.3265 112.206 38.4654H112.165C111.764 38.8959 111.51 39.1112 111.403 39.1112C111.35 39.1112 111.31 39.0977 111.283 39.0708V38.9901C111.283 38.9901 111.296 38.9363 111.323 38.8287C111.992 38.0214 113.102 37.2007 114.653 36.3666C116.231 35.5055 117.488 35.075 118.424 35.075C119.36 35.075 119.828 35.4248 119.828 36.1244C119.828 36.2858 119.801 36.4607 119.748 36.6491H119.788C120.697 35.6266 121.526 35.1153 122.275 35.1153C122.623 35.1153 122.796 35.1557 122.796 35.2364C122.796 35.3171 122.114 36.1917 120.751 37.86C119.387 39.5014 118.705 40.5912 118.705 41.1293L118.785 41.3311C118.865 41.358 118.959 41.3715 119.066 41.3715C119.627 41.3715 120.55 40.8199 121.834 39.7166C123.144 38.5865 123.853 38.008 123.96 37.9811C123.987 38.008 124 38.0214 124 38.0214ZM119.467 36.2455C119.467 35.7611 119.213 35.5189 118.705 35.5189C118.009 35.5189 116.846 36.2993 115.214 37.86C113.61 39.4207 112.807 40.5239 112.807 41.1697C112.807 41.4926 112.981 41.654 113.329 41.654C114.104 41.654 115.321 40.9275 116.98 39.4745C118.638 38.0214 119.467 36.9451 119.467 36.2455Z" fill="#242628"/>
</svg>
